<?xml version="1.0" encoding="iso-8859-1"?>
<!-- Generator: Adobe Illustrator 19.0.0, SVG Export Plug-In . SVG Version: 6.00 Build 0)  -->
<svg version="1.1" id="Layer_1" xmlns="http://www.w3.org/2000/svg" xmlns:xlink="http://www.w3.org/1999/xlink" x="0px" y="0px"
	 viewBox="0 0 507.6 507.6" style="enable-background:new 0 0 507.6 507.6;fill:white;" xml:space="preserve">
<g>
	<g>
		<path d="M492.8,421.2c-2.8,0-6.4,0.8-8.4,2l-65.6-37.6V203.2c0,0,0.4-3.2,0-5.2c-0.4-1.2-1.2-1.6-1.2-1.6L264,105.2V46
			c4-2.8,7.2-8,7.2-13.6c0-8.8-7.6-16-16.4-16c-8.8,0-15.6,7.2-15.6,16c0,6,1.2,11.2,8.8,14v58.8L93.6,195.6c-2,1.2-3.2,2-4.4,4
			c-0.8,1.6-0.4,5.6-0.4,5.6v179.2L24,423.2c-2.4-1.2-5.2-2-8-2c-8.8,0-16,7.2-16,15.6c0,8.4,6.8,15.6,15.6,15.6
			c8.8,0,15.6-7.2,15.6-15.6l63.2-38.4l154,90.8c1.6,1.2,3.2,2,5.2,2c1.2,0,2.8-0.4,4-1.2l154-90.8l64.8,38
			c0,8.8,7.2,15.6,15.6,15.6c8.8,0,15.6-7.2,15.6-15.6C507.6,428.8,501.2,421.2,492.8,421.2z M247.6,123.6v158.964L112.8,203.2
			L247.6,123.6z M264,123.6l134.8,79.6L264,282.8V123.6z M264,469.2V310.4l134,79.2L264,469.2z M402.8,376.4l-135.2-80l135.2-79.6
			V376.4z"/>
	</g>
</g>
<g>
</g>
<g>
</g>
<g>
</g>
<g>
</g>
<g>
</g>
<g>
</g>
<g>
</g>
<g>
</g>
<g>
</g>
<g>
</g>
<g>
</g>
<g>
</g>
<g>
</g>
<g>
</g>
<g>
</g>
</svg>
