<?xml version="1.0" encoding="iso-8859-1"?>
<!-- Generator: Adobe Illustrator 18.1.1, SVG Export Plug-In . SVG Version: 6.00 Build 0)  -->
<svg version="1.1" id="Capa_1" xmlns="http://www.w3.org/2000/svg" xmlns:xlink="http://www.w3.org/1999/xlink" x="0px" y="0px"
	 viewBox="0 0 149.172 149.172" style="enable-background:new 0 0 149.172 149.172;fill: white;" xml:space="preserve">
<g>
	<g>
		<polygon points="86.52,116.354 62.652,116.354 62.652,124.624 38.785,129.439 38.785,134.255 
			110.387,134.255 110.387,129.439 86.52,124.624 		"/>
		<path d="M0,14.917v95.47h149.172v-95.47H0z M84.199,48.887c0.376,0.37,0.394,0.979,0.03,1.366
			c-0.191,0.197-0.448,0.304-0.704,0.304c-0.239,0-0.483-0.101-0.668-0.28l-1.366-1.313c-0.382-0.37-0.4-0.991-0.024-1.366
			c0.37-0.376,0.991-0.394,1.366-0.024L84.199,48.887z M74.586,33.283c4.278,0,7.745,3.473,7.745,7.751
			c0,3.926-2.977,7.053-6.772,7.542v0.197c0,0.549-0.436,0.979-0.973,0.979s-0.973-0.43-0.973-0.979v-0.197
			c-3.795-0.489-6.772-3.604-6.772-7.542C66.841,36.756,70.308,33.283,74.586,33.283z M74.586,67.175
			c-0.531,0-0.973-0.43-0.973-0.967v-1.933c0-0.537,0.436-0.967,0.973-0.967s0.973,0.43,0.973,0.967v1.933
			C75.558,66.745,75.117,67.175,74.586,67.175z M75.558,70.081v1.927c0,0.537-0.436,0.967-0.973,0.967s-0.973-0.43-0.973-0.967
			v-1.927c0-0.543,0.436-0.973,0.973-0.973S75.558,69.538,75.558,70.081z M74.586,61.363c-0.531,0-0.973-0.43-0.973-0.973v-1.927
			c0-0.543,0.436-0.973,0.973-0.973s0.973,0.43,0.973,0.973v1.927C75.558,60.934,75.117,61.363,74.586,61.363z M74.586,55.558
			c-0.531,0-0.973-0.424-0.973-0.967v-1.927c0-0.543,0.436-0.979,0.973-0.979s0.973,0.436,0.973,0.979v1.927
			C75.558,55.122,75.117,55.558,74.586,55.558z M64.973,48.887l1.372-1.319c0.382-0.37,1.002-0.364,1.366,0.024
			c0.37,0.376,0.358,1.002-0.024,1.366l-1.372,1.313c-0.185,0.179-0.43,0.28-0.668,0.28c-0.251,0-0.513-0.107-0.704-0.304
			C64.573,49.865,64.591,49.257,64.973,48.887z M45.08,78.118c-0.036,0.179-0.155,0.316-0.269,0.442
			c-0.907,3.264-3.777,5.71-7.333,5.71c-4.278,0-7.745-3.467-7.745-7.739c0-4.278,3.473-7.751,7.745-7.751s7.745,3.473,7.745,7.751
			c0,0.394-0.167,0.74-0.227,1.122C45.038,77.808,45.116,77.951,45.08,78.118z M45.038,70.26c-0.257,0-0.513-0.113-0.698-0.304
			c-0.37-0.382-0.358-1.002,0.024-1.366l1.372-1.331c0.382-0.37,0.996-0.358,1.366,0.024c0.37,0.388,0.352,1.002-0.036,1.366
			L45.7,69.973C45.521,70.164,45.283,70.26,45.038,70.26z M49.835,80.087c-0.06,0-0.125-0.012-0.197-0.024l-1.903-0.394
			c-0.519-0.119-0.859-0.621-0.746-1.14c0.113-0.537,0.603-0.871,1.146-0.752l1.903,0.388c0.519,0.119,0.859,0.627,0.746,1.146
			C50.689,79.777,50.289,80.087,49.835,80.087z M51.202,64.741l-1.372,1.307c-0.185,0.185-0.424,0.28-0.668,0.28
			c-0.257,0-0.513-0.107-0.704-0.292c-0.37-0.382-0.352-1.014,0.03-1.372l1.372-1.319c0.382-0.37,0.996-0.37,1.366,0.024
			C51.596,63.75,51.59,64.359,51.202,64.741z M52.61,60.713l1.372-1.319c0.382-0.37,0.996-0.37,1.366,0.024
			c0.37,0.376,0.352,0.996-0.036,1.366l-1.372,1.319c-0.185,0.173-0.424,0.274-0.668,0.274c-0.251,0-0.507-0.101-0.698-0.298
			C52.21,61.697,52.228,61.077,52.61,60.713z M55.552,81.275c-0.066,0-0.131-0.012-0.197-0.024l-1.903-0.394
			c-0.525-0.113-0.865-0.621-0.752-1.14c0.107-0.513,0.585-0.865,1.146-0.746l1.903,0.382c0.519,0.119,0.859,0.621,0.752,1.146
			C56.405,80.958,56.005,81.275,55.552,81.275z M57.401,58.434c-0.251,0-0.507-0.095-0.698-0.304c-0.37-0.37-0.352-0.996,0.03-1.366
			l1.378-1.325c0.388-0.358,0.996-0.37,1.366,0.036c0.37,0.376,0.358,1.002-0.03,1.366l-1.372,1.319
			C57.879,58.338,57.64,58.434,57.401,58.434z M61.262,82.462c-0.066,0-0.131,0-0.203-0.024l-1.903-0.394
			c-0.519-0.119-0.859-0.621-0.746-1.14s0.591-0.871,1.146-0.758l1.897,0.406c0.525,0.107,0.865,0.621,0.746,1.128
			C62.115,82.164,61.715,82.462,61.262,82.462z M63.565,52.902l-1.372,1.325c-0.185,0.173-0.43,0.274-0.668,0.274
			c-0.251,0-0.507-0.107-0.698-0.298c-0.37-0.382-0.358-1.002,0.03-1.366l1.366-1.331c0.382-0.37,1.002-0.358,1.366,0.024
			C63.965,51.924,63.953,52.538,63.565,52.902z M84.306,83.232l-1.897,0.394c-0.072,0.012-0.131,0.024-0.197,0.024
			c0.012,0.209,0.125,0.388,0.125,0.621c0,4.272-3.467,7.751-7.745,7.751s-7.745-3.479-7.745-7.751c0-0.221,0.107-0.394,0.125-0.621
			c-0.06,0-0.125-0.012-0.191-0.024l-1.903-0.388c-0.525-0.113-0.859-0.621-0.752-1.146c0.113-0.513,0.603-0.871,1.146-0.74
			l1.903,0.388c0.072,0.012,0.101,0.084,0.161,0.119c0.925-2.769,3.318-4.744,6.283-5.126v-0.841c0-0.543,0.436-0.967,0.973-0.967
			c0.537,0,0.973,0.424,0.973,0.967v0.841c2.966,0.382,5.352,2.363,6.283,5.114c0.066-0.024,0.09-0.095,0.155-0.107l1.909-0.4
			c0.537-0.125,1.026,0.221,1.146,0.746C85.153,82.605,84.825,83.13,84.306,83.232z M85.577,51.536
			c0.37-0.37,0.996-0.382,1.366-0.024l1.366,1.331c0.388,0.37,0.406,0.979,0.042,1.366c-0.197,0.191-0.453,0.298-0.71,0.298
			c-0.233,0-0.477-0.101-0.662-0.274l-1.372-1.325C85.219,52.538,85.201,51.924,85.577,51.536z M90.01,82.044l-1.903,0.382
			c-0.072,0.012-0.125,0.036-0.197,0.036c-0.448,0-0.853-0.328-0.943-0.782c-0.107-0.525,0.233-1.038,0.752-1.14l1.903-0.394
			c0.549-0.113,1.026,0.233,1.14,0.758C90.869,81.424,90.529,81.925,90.01,82.044z M91.77,58.434c-0.251,0-0.489-0.095-0.668-0.269
			l-1.366-1.319c-0.388-0.37-0.4-0.991-0.03-1.372c0.37-0.37,0.996-0.394,1.366-0.018l1.372,1.325
			c0.382,0.37,0.406,0.979,0.036,1.366C92.278,58.338,92.021,58.434,91.77,58.434z M95.721,80.851l-1.903,0.4
			c-0.066,0.012-0.125,0.024-0.197,0.024c-0.448,0-0.853-0.316-0.937-0.776c-0.113-0.531,0.215-1.044,0.746-1.146l1.903-0.394
			c0.525-0.107,1.038,0.221,1.146,0.746C96.586,80.231,96.246,80.738,95.721,80.851z M96.592,62.067
			c-0.185,0.209-0.442,0.31-0.698,0.31c-0.245,0-0.477-0.101-0.662-0.269l-1.372-1.313c-0.382-0.376-0.4-0.991-0.036-1.372
			c0.376-0.394,0.991-0.394,1.366-0.036l1.378,1.313C96.944,61.077,96.962,61.691,96.592,62.067z M97.934,63.356
			c0.376-0.376,0.996-0.394,1.366-0.024l1.366,1.319c0.376,0.37,0.4,0.991,0.03,1.366c-0.185,0.197-0.442,0.298-0.698,0.298
			c-0.245,0-0.489-0.101-0.662-0.274l-1.372-1.319C97.582,64.359,97.57,63.75,97.934,63.356z M101.437,79.67l-1.897,0.388
			c-0.078,0.012-0.137,0.018-0.197,0.018c-0.453,0-0.871-0.322-0.955-0.77c-0.107-0.525,0.233-1.038,0.752-1.14l1.903-0.388
			c0.537-0.125,1.026,0.227,1.14,0.752C102.29,79.037,101.95,79.55,101.437,79.67z M102.087,68.667
			c-0.382-0.37-0.4-0.979-0.036-1.366c0.376-0.376,1.002-0.388,1.366-0.024l1.366,1.325c0.382,0.37,0.4,0.979,0.024,1.366
			c-0.179,0.185-0.436,0.292-0.692,0.292c-0.245,0-0.483-0.101-0.668-0.269L102.087,68.667z M111.706,84.27
			c-3.568,0-6.432-2.446-7.333-5.716c-0.113-0.125-0.227-0.257-0.263-0.436c-0.036-0.161,0.042-0.304,0.084-0.453
			c-0.06-0.376-0.227-0.722-0.227-1.122c0-4.284,3.467-7.757,7.745-7.757s7.751,3.473,7.751,7.757
			C119.445,80.803,115.984,84.27,111.706,84.27z"/>
	</g>
</g>
<g>
</g>
<g>
</g>
<g>
</g>
<g>
</g>
<g>
</g>
<g>
</g>
<g>
</g>
<g>
</g>
<g>
</g>
<g>
</g>
<g>
</g>
<g>
</g>
<g>
</g>
<g>
</g>
<g>
</g>
</svg>
