<?xml version="1.0" encoding="iso-8859-1"?>
<!-- Generator: Adobe Illustrator 19.0.0, SVG Export Plug-In . SVG Version: 6.00 Build 0)  -->
<svg version="1.1" id="Layer_1" xmlns="http://www.w3.org/2000/svg" xmlns:xlink="http://www.w3.org/1999/xlink" x="0px" y="0px"
	 viewBox="0 0 512 512" style="enable-background:new 0 0 512 512;fill: white;" xml:space="preserve">
<g transform="translate(1 1)">
	<g>
		<g>
			<path d="M139.8,400.067h-29.867V370.2c0-5.12-3.413-8.533-8.533-8.533s-8.533,3.413-8.533,8.533v38.4
				c0,5.12,3.413,8.533,8.533,8.533h38.4c5.12,0,8.533-3.413,8.533-8.533S144.92,400.067,139.8,400.067z"/>
			<path d="M101.4,343.747c5.12,0,8.533-3.413,8.533-8.533v-63.147c0-5.12-3.413-8.533-8.533-8.533s-8.533,3.413-8.533,8.533v63.147
				C92.867,340.333,96.28,343.747,101.4,343.747z"/>
			<path d="M101.4,246.467c5.12,0,8.533-4.267,8.533-8.533v-63.147c0-5.12-3.413-8.533-8.533-8.533s-8.533,3.413-8.533,8.533v63.147
				C92.867,243.053,96.28,246.467,101.4,246.467z"/>
			<path d="M139.8,92.867h-38.4c-5.12,0-8.533,3.413-8.533,8.533v38.4c0,5.12,3.413,8.533,8.533,8.533s8.533-3.413,8.533-8.533
				v-29.867H139.8c5.12,0,8.533-3.413,8.533-8.533S144.92,92.867,139.8,92.867z"/>
			<path d="M237.933,92.867h-63.147c-5.12,0-8.533,3.413-8.533,8.533s3.413,8.533,8.533,8.533h63.147
				c4.267,0,8.533-3.413,8.533-8.533S243.053,92.867,237.933,92.867z"/>
			<path d="M335.213,92.867h-63.147c-5.12,0-8.533,3.413-8.533,8.533s3.413,8.533,8.533,8.533h63.147
				c5.12,0,8.533-3.413,8.533-8.533S340.333,92.867,335.213,92.867z"/>
			<path d="M408.6,92.867h-38.4c-5.12,0-8.533,3.413-8.533,8.533s3.413,8.533,8.533,8.533h29.867V139.8
				c0,5.12,3.413,8.533,8.533,8.533s8.533-3.413,8.533-8.533v-38.4C417.133,96.28,413.72,92.867,408.6,92.867z"/>
			<path d="M408.6,263.533c-5.12,0-8.533,3.413-8.533,8.533v63.147c0,5.12,3.413,8.533,8.533,8.533s8.533-3.413,8.533-8.533v-63.147
				C417.133,266.947,413.72,263.533,408.6,263.533z"/>
			<path d="M408.6,166.253c-5.12,0-8.533,3.413-8.533,8.533v63.147c0,5.12,3.413,8.533,8.533,8.533s8.533-4.267,8.533-8.533v-63.147
				C417.133,169.667,413.72,166.253,408.6,166.253z"/>
			<path d="M408.6,361.667c-5.12,0-8.533,3.413-8.533,8.533v29.867H370.2c-5.12,0-8.533,3.413-8.533,8.533s3.413,8.533,8.533,8.533
				h38.4c5.12,0,8.533-3.413,8.533-8.533v-38.4C417.133,365.08,413.72,361.667,408.6,361.667z"/>
			<path d="M335.213,400.067h-63.147c-5.12,0-8.533,3.413-8.533,8.533s3.413,8.533,8.533,8.533h63.147
				c5.12,0,8.533-3.413,8.533-8.533S340.333,400.067,335.213,400.067z"/>
			<path d="M237.933,400.067h-63.147c-5.12,0-8.533,3.413-8.533,8.533s3.413,8.533,8.533,8.533h63.147
				c4.267,0,8.533-3.413,8.533-8.533S243.053,400.067,237.933,400.067z"/>
			<path d="M502.467,135.533c5.12,0,8.533-3.413,8.533-8.533s-3.413-8.533-8.533-8.533h-34.133v-25.6h34.133
				c5.12,0,8.533-3.413,8.533-8.533c0-5.12-3.413-8.533-8.533-8.533h-34.133v-4.267c0-16.213-13.653-29.867-29.867-29.867H434.2
				V7.533c0-5.12-3.413-8.533-8.533-8.533s-8.533,3.413-8.533,8.533v34.133h-25.6V7.533C391.533,2.413,388.12-1,383-1
				s-8.533,3.413-8.533,8.533v34.133h-25.6V7.533c0-5.12-3.413-8.533-8.533-8.533c-5.12,0-8.533,3.413-8.533,8.533v34.133h-25.6
				V7.533c0-5.12-3.413-8.533-8.533-8.533s-8.533,3.413-8.533,8.533v34.133h-25.6V7.533C263.533,2.413,260.12-1,255-1
				s-8.533,3.413-8.533,8.533v34.133h-25.6V7.533c0-5.12-3.413-8.533-8.533-8.533c-5.12,0-8.533,3.413-8.533,8.533v34.133h-25.6
				V7.533c0-5.12-3.413-8.533-8.533-8.533s-8.533,3.413-8.533,8.533v34.133h-25.6V7.533C135.533,2.413,132.12-1,127-1
				s-8.533,3.413-8.533,8.533v34.133h-25.6V7.533c0-5.12-3.413-8.533-8.533-8.533C79.213-1,75.8,2.413,75.8,7.533v34.133h-4.267
				c-16.213,0-29.867,13.653-29.867,29.867V75.8H7.533C2.413,75.8-1,79.213-1,84.333c0,5.12,3.413,8.533,8.533,8.533h34.133v25.6
				H7.533C2.413,118.467-1,121.88-1,127s3.413,8.533,8.533,8.533h34.133v25.6H7.533c-5.12,0-8.533,3.413-8.533,8.533
				s3.413,8.533,8.533,8.533h34.133v25.6H7.533c-5.12,0-8.533,3.413-8.533,8.533c0,5.12,3.413,8.533,8.533,8.533h34.133v25.6H7.533
				C2.413,246.467-1,249.88-1,255s3.413,8.533,8.533,8.533h34.133v25.6H7.533c-5.12,0-8.533,3.413-8.533,8.533
				s3.413,8.533,8.533,8.533h34.133v25.6H7.533c-5.12,0-8.533,3.413-8.533,8.533c0,5.12,3.413,8.533,8.533,8.533h34.133v25.6H7.533
				C2.413,374.467-1,377.88-1,383s3.413,8.533,8.533,8.533h34.133v25.6H7.533c-5.12,0-8.533,3.413-8.533,8.533
				s3.413,8.533,8.533,8.533h34.133v4.267c0,16.213,13.653,29.867,29.867,29.867H75.8v34.133c0,5.12,3.413,8.533,8.533,8.533
				c5.12,0,8.533-3.413,8.533-8.533v-34.133h25.6v34.133c0,5.12,3.413,8.533,8.533,8.533s8.533-3.413,8.533-8.533v-34.133h25.6
				v34.133c0,5.12,3.413,8.533,8.533,8.533s8.533-3.413,8.533-8.533v-34.133h25.6v34.133c0,5.12,3.413,8.533,8.533,8.533
				c5.12,0,8.533-3.413,8.533-8.533v-34.133h25.6v34.133c0,5.12,3.413,8.533,8.533,8.533s8.533-3.413,8.533-8.533v-34.133h25.6
				v34.133c0,5.12,3.413,8.533,8.533,8.533s8.533-3.413,8.533-8.533v-34.133h25.6v34.133c0,5.12,3.413,8.533,8.533,8.533
				c5.12,0,8.533-3.413,8.533-8.533v-34.133h25.6v34.133c0,5.12,3.413,8.533,8.533,8.533s8.533-3.413,8.533-8.533v-34.133h25.6
				v34.133c0,5.12,3.413,8.533,8.533,8.533s8.533-3.413,8.533-8.533v-34.133h4.267c16.213,0,29.867-13.653,29.867-29.867V434.2
				h34.133c5.12,0,8.533-3.413,8.533-8.533s-3.413-8.533-8.533-8.533h-34.133v-25.6h34.133c5.12,0,8.533-3.413,8.533-8.533
				s-3.413-8.533-8.533-8.533h-34.133v-25.6h34.133c5.12,0,8.533-3.413,8.533-8.533c0-5.12-3.413-8.533-8.533-8.533h-34.133v-25.6
				h34.133c5.12,0,8.533-3.413,8.533-8.533s-3.413-8.533-8.533-8.533h-34.133v-25.6h34.133c5.12,0,8.533-3.413,8.533-8.533
				s-3.413-8.533-8.533-8.533h-34.133v-25.6h34.133c5.12,0,8.533-3.413,8.533-8.533c0-5.12-3.413-8.533-8.533-8.533h-34.133v-25.6
				h34.133c5.12,0,8.533-3.413,8.533-8.533s-3.413-8.533-8.533-8.533h-34.133v-25.6H502.467z M451.267,438.467
				c0,6.827-5.973,12.8-12.8,12.8H71.533c-6.827,0-12.8-5.973-12.8-12.8V71.533c0-6.827,5.973-12.8,12.8-12.8h366.933
				c6.827,0,12.8,5.973,12.8,12.8V438.467z"/>
		</g>
	</g>
</g>
<g>
</g>
<g>
</g>
<g>
</g>
<g>
</g>
<g>
</g>
<g>
</g>
<g>
</g>
<g>
</g>
<g>
</g>
<g>
</g>
<g>
</g>
<g>
</g>
<g>
</g>
<g>
</g>
<g>
</g>
</svg>
