<?xml version="1.0" encoding="iso-8859-1"?>
<!-- Generator: Adobe Illustrator 18.0.0, SVG Export Plug-In . SVG Version: 6.00 Build 0)  -->
<!DOCTYPE svg PUBLIC "-//W3C//DTD SVG 1.1//EN" "http://www.w3.org/Graphics/SVG/1.1/DTD/svg11.dtd">
<svg version="1.1" id="Capa_1" xmlns="http://www.w3.org/2000/svg" xmlns:xlink="http://www.w3.org/1999/xlink" x="0px" y="0px"
	 viewBox="0 0 394.953 394.953" style="enable-background:new 0 0 394.953 394.953;fill: white" xml:space="preserve">
<g>
	<path d="M394.953,325.334v-49.869c0-3.039-2.464-5.504-5.503-5.504h-44.375v-67.34c0-3.039-2.464-5.502-5.503-5.502H202.974
		v-55.496h61.002c3.039,0,5.503-2.463,5.503-5.502V69.619c0-3.039-2.464-5.504-5.503-5.504H130.974
		c-3.039,0-5.503,2.465-5.503,5.504v66.502c0,3.039,2.464,5.502,5.503,5.502h60.994v55.496H55.373c-3.04,0-5.503,2.463-5.503,5.502
		v67.34H5.503c-3.039,0-5.503,2.465-5.503,5.504v49.869c0,3.039,2.464,5.504,5.503,5.504h99.747c3.039,0,5.503-2.465,5.503-5.504
		v-49.869c0-3.039-2.464-5.504-5.503-5.504H60.875v-61.836h131.092v61.836h-44.371c-3.04,0-5.503,2.465-5.503,5.504v49.869
		c0,3.039,2.463,5.504,5.503,5.504h99.751c3.04,0,5.503-2.465,5.503-5.504v-49.869c0-3.039-2.463-5.504-5.503-5.504h-44.374v-61.836
		h131.096v61.836h-44.371c-3.04,0-5.503,2.465-5.503,5.504v49.869c0,3.039,2.463,5.504,5.503,5.504h99.751
		C392.489,330.838,394.953,328.373,394.953,325.334z M136.477,130.617V75.121h121.996v55.496h-61.002H136.477z M99.748,280.967
		v38.865H11.006v-38.865h44.367H99.748z M241.845,280.967v38.865H153.1v-38.865h44.371H241.845z M383.947,319.832h-88.746v-38.865
		h44.371h44.375V319.832z"/>
</g>
<g>
</g>
<g>
</g>
<g>
</g>
<g>
</g>
<g>
</g>
<g>
</g>
<g>
</g>
<g>
</g>
<g>
</g>
<g>
</g>
<g>
</g>
<g>
</g>
<g>
</g>
<g>
</g>
<g>
</g>
</svg>
