{"asset":{"version":"2.0","generator":"THREE.GLTFExporter"},"scenes":[{"nodes":[1],"name":"AuxScene"}],"scene":0,"nodes":[{"matrix":[1,0,0,0,0,2.220446049250313e-16,-1,0,0,1,2.220446049250313e-16,0,0,0,0,1],"name":"geometry","mesh":0},{"children":[0]}],"bufferViews":[{"buffer":0,"byteOffset":0,"byteLength":115200,"target":34962,"byteStride":12},{"buffer":0,"byteOffset":115200,"byteLength":115200,"target":34962,"byteStride":12},{"buffer":0,"byteOffset":230400,"byteLength":115200,"target":34962,"byteStride":12},{"buffer":0,"byteOffset":345600,"byteLength":76800,"target":34962,"byteStride":8}],"buffers":[{"byteLength":422400,"uri":"data:application/octet-stream;base64,"}],"accessors":[{"bufferView":0,"componentType":5126,"count":9600,"max":[3.5,3.5,0],"min":[-3.5,-3.5,0],"type":"VEC3"},{"bufferView":1,"componentType":5126,"count":9600,"max":[0,0,1],"min":[0,0,1],"type":"VEC3"},{"bufferView":2,"componentType":5126,"count":9600,"max":[1,1,1],"min":[1,1,1],"type":"VEC3"},{"bufferView":3,"componentType":5126,"count":9600,"max":[1,1],"min":[0,0],"type":"VEC2"}],"materials":[{"pbrMetallicRoughness":{"metallicFactor":0,"roughnessFactor":1,"baseColorTexture":{"index":0}},"doubleSided":true}],"textures":[{"sampler":0,"source":0}],"samplers":[{"magFilter":9729,"minFilter":9987}],"images":[{"mimeType":"image/jpeg","uri":"data:image/jpeg;base64,"}],"meshes":[{"primitives":[{"mode":4,"attributes":{"POSITION":0,"NORMAL":1,"COLOR_0":2,"TEXCOORD_0":3},"material":0}]}]}